inDegrees=yes
name=ik_S44_A01_T01
DataType=double
version=3
OpenSimVersion=4.3-2021-08-27-4bc7ad9
endheader
time	pelvis_tilt	pelvis_list	pelvis_rotation	pelvis_tx	pelvis_ty	pelvis_tz	hip_flexion_r	hip_adduction_r	hip_rotation_r	knee_angle_r	knee_angle_r_beta	ankle_angle_r	subtalar_angle_r	mtp_angle_r	hip_flexion_l	hip_adduction_l	hip_rotation_l	knee_angle_l	knee_angle_l_beta	ankle_angle_l	subtalar_angle_l	mtp_angle_l	lumbar_extension	lumbar_bending	lumbar_rotation	arm_flex_r	arm_add_r	arm_rot_r	elbow_flex_r	pro_sup_r	wrist_flex_r	wrist_dev_r	arm_flex_l	arm_add_l	arm_rot_l	elbow_flex_l	pro_sup_l	wrist_flex_l	wrist_dev_l
41.36000000000087	0.7955486631914956	-2.206095050328178	-83.15961404155897	0	0.9399999999999999	0	-8.093828178318926	-7.271152213982145	-5.594098886225356	-8.470840463316572	-0.1478440564960361	0	0	0	1.530383588089235	-6.513922236915106	-3.859448578554975	8.140627750289733	0.1420807574217746	0	0	0	0	0	0	44.14910453502043	-44.14910453502043	4.995037699022971	84.92982172201965	85.00496257504081	0	0	44.14910453502043	-44.14910453502043	4.995037699022971	84.92982172201965	85.00496257503939	0	0
41.38000000000087	0.6863154930506148	-2.184273804333886	-83.13722451596192	0	0.9399999999999999	0	-8.048709385045768	-7.068691430864606	-5.642500945160612	-8.487313570897633	-0.1481315664613609	0	0	0	1.454885813223125	-6.989454703309284	-3.897101086421929	8.100784833064994	0.1413853673326033	0	0	0	0	0	0	44.14916092802732	-44.14916092802732	4.995038354801254	84.9298309964624	85.00496191926257	0	0	44.14916092802732	-44.14916092802732	4.995038354801254	84.9298309964624	85.00496191926115	0	0
41.40000000000087	0.57687765420171	-2.109433707745043	-83.05724421334642	0	0.9399999999999999	0	-8.003986614305939	-6.844884389350974	-5.837551782619027	-8.549403648050816	-0.1492152427405012	0	0	0	1.517566970646064	-7.312972234678898	-3.83245149567668	8.044888545284461	0.1404097930711908	0	0	0	0	0	0	44.149227674372	-44.149227674372	4.995039131686576	84.92984198367986	85.0049611423773	0	0	44.149227674372	-44.149227674372	4.995039131686576	84.92984198367986	85.00496114237586	0	0
41.42000000000088	0.5062032857211727	-2.025490588642774	-83.03016155892239	0	0.9399999999999999	0	-7.980925196820658	-6.66918407952463	-5.951955185781992	-8.65767327921807	-0.1511049042842897	0	0	0	1.594458483288081	-7.644712703207821	-3.772602475787254	7.929759422227685	0.1384004108089163	0	0	0	0	0	0	44.14930305725314	-44.14930305725314	4.995040013993883	84.9298544618437	85.00496026007002	0	0	44.14930305725314	-44.14930305725314	4.995040013993883	84.9298544618437	85.0049602600686	0	0
41.44000000000088	0.3910281297006091	-1.875884641202989	-83.03693496285761	0	0.9399999999999999	0	-7.893328956864448	-6.481525056416436	-6.075654379609499	-8.773545889258918	-0.1531272628423819	0	0	0	1.744324914340339	-7.930232066116484	-3.656860398165319	7.848042354074268	0.1369741789145626	0	0	0	0	0	0	44.14935929831508	-44.14935929831508	4.995040672688011	84.92986377752449	85.00495960137589	0	0	44.14935929831508	-44.14935929831508	4.995040672688011	84.92986377752449	85.00495960137447	0	0
41.46000000000088	0.3184471887523057	-1.780729326697694	-83.05097590584867	0	0.9399999999999999	0	-7.868454771642897	-6.357086990402055	-6.213437854586148	-8.867971911631788	-0.1547753078323503	0	0	0	1.823262458979096	-8.13856518790903	-3.574393285490639	7.763037061427962	0.1354905566762632	0	0	0	0	0	0	44.14941912049413	-44.14941912049413	4.995041374133224	84.92987369781885	85.0049588999307	0	0	44.14941912049413	-44.14941912049413	4.995041374133224	84.92987369781885	85.00495889992928	0	0
41.48000000000089	0.2556650275676312	-1.703463828347523	-83.07838057471625	0	0.9399999999999999	0	-7.845759523514839	-6.216467307232586	-6.308225941996218	-8.990375403471019	-0.1569116517808829	0	0	0	1.898619087128261	-8.196843640354485	-3.585476359902648	7.689342322982703	0.1342043408489974	0	0	0	0	0	0	44.14950875764103	-44.14950875764103	4.995042425357996	84.9298885649232	85.00495784870594	0	0	44.14950875764103	-44.14950875764103	4.995042425357996	84.9298885649232	85.00495784870452	0	0
41.50000000000089	0.2226994556107941	-1.633135832347604	-83.14530750381159	0	0.9399999999999999	0	-7.769236811295232	-6.166335439404474	-6.25418178587629	-9.056624059715132	-0.1580679089573646	0	0	0	1.964483707528984	-8.251724503960194	-3.618741502323116	7.555453880426252	0.13186754669602	0	0	0	0	0	0	44.15549385922236	-44.15549385922236	4.995110974868531	84.93085803657236	85.00488929919763	0	0	44.15549385922236	-44.15549385922236	4.995110974868531	84.93085803657236	85.00488929919625	0	0
41.52000000000089	0.1885012892530762	-1.575974917424539	-83.24181371207742	0	0.9399999999999999	0	-7.69125097686768	-6.07622114357217	-6.183122769129083	-9.046161881227032	-0.1578853094958159	0	0	0	2.005953092930445	-8.293494808052344	-3.714797967654258	7.465785553876539	0.1303025391629741	0	0	0	0	0	0	44.16224684775923	-44.16224684775923	4.9951868961736	84.93193176487412	85.00481337789502	0	0	44.16224684775923	-44.16224684775923	4.9951868961736	84.93193176487412	85.00481337789367	0	0
41.54000000000089	0.1518463001985499	-1.569009079279914	-83.29740025208142	0	0.9399999999999999	0	-7.64903447546186	-6.036644758771907	-6.113783806210901	-8.826636059486033	-0.1540538611132893	0	0	0	2.036796076491711	-8.34478494542314	-3.754187093695407	7.504058835895298	0.1309705339497458	0	0	0	0	0	0	44.1703972438418	-44.1703972438418	4.995275424147822	84.93318378477795	85.00472484992363	0	0	44.1703972438418	-44.1703972438418	4.995275424147822	84.93318378477795	85.0047248499223	0	0
41.5600000000009	0.03148959760611018	-1.295031509281637	-83.60512595284482	0	0.9399999999999999	0	-7.189500207551322	-5.839085119773322	-5.950631225708047	-8.802335548542572	-0.153629737187409	0	0	0	2.114107434141526	-8.87163553280647	-3.429950748986685	7.174468567064753	0.1252180985761195	0	0	0	0	0	0	44.17051807530856	-44.17051807530856	4.995276810167022	84.93320338676163	85.00472346390451	0	0	44.17051807530856	-44.17051807530856	4.995276810167022	84.93320338676163	85.00472346390318	0	0
41.5800000000009	0.00524413581665633	-1.25919149439938	-83.67422279316534	0	0.9399999999999999	0	-7.108631680115902	-5.785830208544573	-5.939638294339186	-8.689278295884241	-0.151656515885262	0	0	0	2.102846312864832	-8.902078814757768	-3.49063884047154	6.962889992712259	0.1215253558269929	0	0	0	0	0	0	44.17439718304238	-44.17439718304238	4.995322147839401	84.93384458155917	85.00467812623363	0	0	44.17439718304238	-44.17439718304238	4.995322147839401	84.93384458155917	85.00467812623231	0	0
41.6000000000009	-0.03052405383717741	-1.171905425255735	-83.76137803170053	0	0.9399999999999999	0	-7.029393373929949	-5.743202570504354	-5.938821591712474	-8.695620551154352	-0.1517672091217274	0	0	0	2.208581390091654	-8.942414992675872	-3.566327712425736	6.933602281776429	0.1210141888407903	0	0	0	0	0	0	44.17444039558995	-44.17444039558995	4.995322637100985	84.933851501014	85.00467763697206	0	0	44.17444039558995	-44.17444039558995	4.995322637100985	84.933851501014	85.00467763697075	0	0
41.62000000000091	-0.09197233766605957	-1.052071074320336	-83.85165127315118	0	0.9399999999999999	0	-6.910377354095018	-5.698852527658191	-5.974291421713084	-8.705091660902848	-0.1519325111706565	0	0	0	2.328361914698299	-9.001737602548893	-3.673290329739406	6.84917993828559	0.1195407409846256	0	0	0	0	0	0	44.17448261197311	-44.17448261197311	4.995323114009365	84.9338582457619	85.00467716006372	0	0	44.17448261197311	-44.17448261197311	4.995323114009365	84.9338582457619	85.0046771600624	0	0
